<svg id="レイヤー_1" data-name="レイヤー 1" xmlns="http://www.w3.org/2000/svg" viewBox="0 0 512 96"><defs><style>.cls-1{fill:#d40000;}.cls-2{fill:#ff6115;stroke:#000;stroke-miterlimit:10;stroke-width:0.25px;}</style></defs><title>アートボード 1</title><path d="M19.46,80.42q1.29-5,2.49-9.37t2.34-8.31L26.51,55q1.07-3.74,2.06-7.61a14.3,14.3,0,0,0,.45-2.9,16.4,16.4,0,0,1,.41-2.9,2.16,2.16,0,0,1,.62-.92,5.07,5.07,0,0,1,1-.71,5.65,5.65,0,0,1,1.18-.47,4.46,4.46,0,0,1,1.18-.17,6.1,6.1,0,0,1,2,.28,3.53,3.53,0,0,1,1.29.75,2.52,2.52,0,0,1,.69,1.14A5.31,5.31,0,0,1,37.59,43a9.65,9.65,0,0,1-.47,2.94q-.47,1.48-1.16,3.24,2-1.59,4.15-3a35.06,35.06,0,0,1,4.38-2.49A27.67,27.67,0,0,1,49.11,42a18.53,18.53,0,0,1,4.9-.64,7.7,7.7,0,0,1,2.32.37,6,6,0,0,1,2.08,1.14,6.21,6.21,0,0,1,1.55,2,7.61,7.61,0,0,1,.71,3.05q1.85-1.25,3.82-2.51a41.61,41.61,0,0,1,4-2.28,26.93,26.93,0,0,1,4.08-1.63,13.59,13.59,0,0,1,4-.62,12.84,12.84,0,0,1,4.75.75,7.56,7.56,0,0,1,3,2,7.36,7.36,0,0,1,1.55,2.94,13.67,13.67,0,0,1,.45,3.57,24.47,24.47,0,0,1-.39,4.25q-.39,2.19-.86,4.17-1.25,5-2.79,9.43t-3.35,9L78,79.26a13.86,13.86,0,0,1-1.1,2.21,6.4,6.4,0,0,1-1.46,1.68,3.05,3.05,0,0,1-2,.67A5.27,5.27,0,0,1,70,83,3.14,3.14,0,0,1,69,80.5q0-.43,0-1a4.45,4.45,0,0,1,.21-1.07,11.29,11.29,0,0,1,.77-1.87l1.31-2.64q.71-1.42,1.4-2.86a20.46,20.46,0,0,0,1-2.51q.56-1.85,1.31-4.28t1.44-4.9q.69-2.47,1.14-4.68a18.8,18.8,0,0,0,.45-3.59A6.56,6.56,0,0,0,78,49.83a3,3,0,0,0-.45-1.12,2.4,2.4,0,0,0-.9-.77,3.21,3.21,0,0,0-1.48-.3,8.34,8.34,0,0,0-3.07.73,25.33,25.33,0,0,0-3.7,1.91,34.12,34.12,0,0,0-3.72,2.66,26.84,26.84,0,0,0-3.09,2.94,13.27,13.27,0,0,1-1.72,1.68,7.09,7.09,0,0,1-1.63,1q-.09.17-.43,1.14L57,62q-.47,1.35-1,2.92l-1,2.92-.75,2.28a9.34,9.34,0,0,0-.3,1q-.3,1.2-.52,2.47T53.11,76q-.17,1.16-.32,2.47a9.59,9.59,0,0,1-.6,2.45,4.39,4.39,0,0,1-1.37,1.87,4.1,4.1,0,0,1-2.6.73,3,3,0,0,1-1.57-.43A4.45,4.45,0,0,1,45.41,82a5.42,5.42,0,0,1-.82-1.5,5.85,5.85,0,0,1-.34-1.7q1-3.87,1.93-7t1.89-5.93Q49,63.1,49.9,60.25T51.65,54q.21-.82.34-1.61a8.85,8.85,0,0,0,.13-1.4,3.08,3.08,0,0,0-.43-1.7,1.65,1.65,0,0,0-1.5-.67,9.21,9.21,0,0,0-3.5.71,17.47,17.47,0,0,0-3.76,2.21,52.6,52.6,0,0,0-4.49,3.82Q36,57.65,32.74,60.87a16.44,16.44,0,0,0-.9,2.41Q31.28,65,30.7,67t-1.05,3.67q-.47,1.7-.6,2.26a27.23,27.23,0,0,0-.64,3q-.17,1.22-.3,2.21-.09.52-.26,1.7a11.5,11.5,0,0,1-.62,2.38,6.77,6.77,0,0,1-1.27,2.13,2.73,2.73,0,0,1-2.15.92,4.84,4.84,0,0,1-3.24-1.07A3.54,3.54,0,0,1,19.33,81,5,5,0,0,1,19.46,80.42Z"/><path d="M102.48,45a3.85,3.85,0,0,1,.49-1.18,3.48,3.48,0,0,1,.69-.79,2.86,2.86,0,0,1,.67-.43,1.3,1.3,0,0,1,.47-.13,7,7,0,0,1,1.12.11l1.25.19,1.33.26a1.8,1.8,0,0,1,1.61.9A4.08,4.08,0,0,1,110.6,46a5.82,5.82,0,0,1-.26,1.76q-1.46,5.37-2.66,9.35l-2,6.77q-.84,2.79-1.29,4.55a11.8,11.8,0,0,0-.45,2.66,9.83,9.83,0,0,0,.24,2,8.9,8.9,0,0,0,.71,2.08,5.1,5.1,0,0,0,1.2,1.61,2.57,2.57,0,0,0,1.76.64,7,7,0,0,0,3.65-1.12A20.06,20.06,0,0,0,115,73.61a27.37,27.37,0,0,0,3-3.44q1.35-1.83,2.21-3.24L121.34,65a28.82,28.82,0,0,0,1.91-4.15q.88-2.34,1.55-4.71t1.14-4.45q.47-2.08.73-3.33l1.12-5.71a4.09,4.09,0,0,1,1.05-2.26,3.61,3.61,0,0,1,2.38-.62,7.31,7.31,0,0,1,1.93.24,3.24,3.24,0,0,1,1.46.84,3.75,3.75,0,0,1,.9,1.61,9.33,9.33,0,0,1,.3,2.6,22.11,22.11,0,0,1-.58,4.53Q134.66,52.28,134,55q-.39,1.59-.79,3.37t-.73,3.57q-.32,1.78-.52,3.39a24.58,24.58,0,0,0-.19,2.9q0,2.19.15,4.38t.15,4.64q0,1.12-.06,2a6.5,6.5,0,0,1-.19,1.29A6.13,6.13,0,0,1,130.56,83a3.36,3.36,0,0,1-2.56.82,5.69,5.69,0,0,1-2-.28,2.78,2.78,0,0,1-1.14-.75,2.38,2.38,0,0,1-.54-1.05,8,8,0,0,1-.17-1.18l-.47-8.12-.39.13q-1.42,1.8-3.09,4a34,34,0,0,1-3.7,4.17,20.9,20.9,0,0,1-4.4,3.24,10.58,10.58,0,0,1-5.18,1.31,5,5,0,0,1-1.44-.28,16.51,16.51,0,0,1-1.83-.71,15.68,15.68,0,0,1-1.8-1,9.45,9.45,0,0,1-1.37-1,12.45,12.45,0,0,1-3.35-4.94,16.4,16.4,0,0,1-1-5.59,19.84,19.84,0,0,1,.26-3.18q.26-1.59.6-3.07t.75-2.79q.41-1.31.67-2.34.82-3.22,1.46-5.67t1.14-4.3l.84-3.16Z"/><path d="M144.2,66.8a31.33,31.33,0,0,1,2-5.56,35,35,0,0,1,3.54-6A42.09,42.09,0,0,1,155,49.4,44.6,44.6,0,0,1,162.12,44a10.79,10.79,0,0,1,2-.84,10.53,10.53,0,0,1,2.75-.54,5.86,5.86,0,0,1,4.51-1.8,9.25,9.25,0,0,1,5.65,1.7,13,13,0,0,1,3.8,4.62q.47.94.88,1.85a13.13,13.13,0,0,1,.69,1.91,18.38,18.38,0,0,1,.45,2.17,17.93,17.93,0,0,1,.17,2.62,23.62,23.62,0,0,1-1.07,6.92,31.71,31.71,0,0,1-3.05,6.88,38.37,38.37,0,0,1-4.79,6.42,39.69,39.69,0,0,1-6.25,5.52A18.64,18.64,0,0,1,162.7,84a20.14,20.14,0,0,1-6.29.92,16.83,16.83,0,0,1-5.74-.88,10.7,10.7,0,0,1-4-2.51,10.32,10.32,0,0,1-2.41-3.91,15.3,15.3,0,0,1-.79-5.07A24,24,0,0,1,144.2,66.8Zm7.13.56a14.25,14.25,0,0,0-.37,1.87,14,14,0,0,0-.11,1.7,9.2,9.2,0,0,0,.37,2.64,5.25,5.25,0,0,0,1.18,2.11,5.57,5.57,0,0,0,2,1.38,8,8,0,0,0,3,.49,11.79,11.79,0,0,0,6.08-1.65,20.37,20.37,0,0,0,5-4.15,26.69,26.69,0,0,0,3.67-5.35,24.47,24.47,0,0,0,2.08-5.26q.39-1.5.67-2.84a12,12,0,0,0,.28-2.45,5.32,5.32,0,0,0-.41-2.08q-.41-1-1.05-2.17-.39-.73-.77-1.53t-.69-1.57a6.73,6.73,0,0,1-.73,1.05,3.44,3.44,0,0,1-1.16.82,10.48,10.48,0,0,1-2.11.67,29.83,29.83,0,0,1-3.48.52A11.9,11.9,0,0,0,161.95,53a22.08,22.08,0,0,0-2.86,2.32,32,32,0,0,0-2.66,2.88,30.66,30.66,0,0,0-2.28,3.16,33.64,33.64,0,0,0-1.76,3.16A13.68,13.68,0,0,0,151.33,67.36Z"/><path d="M226.09,69q15.25-32.27,27.41-32.27,9.5,0,9.5,18.91l.09,5.2q0,9,.92,12.48t3.37,3.46q3.69,0,8.4-5.89T291.1,47.19l3.61,2.11q-9.45,17.83-16.93,26.47t-13.41,8.64q-5.46,0-7.67-5.29t-2.21-18.3l0-3.7q0-7-.9-9.9t-3.14-2.86q-5.67,0-18.26,22.64-3.09,5.54-4,7.13-3.31,5.76-3.31,8.34a3.82,3.82,0,0,0,.56,2,11.45,11.45,0,0,1-4.21,1q-4.34,0-4.34-4.81,0-1.37,1.12-12.37l.95-9.32a91.08,91.08,0,0,0,.64-9.2,11.31,11.31,0,0,0-2.06-7.18l3-1a13.57,13.57,0,0,1,4.25-.95q3.35,0,3.35,4.9,0,2.58-.64,8.85-.13,1.38-.26,2.62Z"/><path d="M328.87,52.74a15.06,15.06,0,0,1,.13,1.85,31.11,31.11,0,0,1-8.42,21.66q-8.42,9.24-19.72,9.24-8.64,0-14.07-5.52t-5.44-14.33a24.28,24.28,0,0,1,7-17.36,22.18,22.18,0,0,1,16.56-7.35,13.44,13.44,0,0,1,3.09.39A7.08,7.08,0,0,1,307,38a6.5,6.5,0,0,1,1.42-4q10.48.86,17.45,10.74a26,26,0,0,0,14.87,4.86,21.89,21.89,0,0,0,10.87-3.39l2.15,3.65a24.21,24.21,0,0,1-14,4.77A35.37,35.37,0,0,1,328.87,52.74Zm-9.75-3.65a19.81,19.81,0,0,1-6.57-3.44,18.7,18.7,0,0,0-3.65-.47q-7.31,0-13,6.58a22.38,22.38,0,0,0-5.65,15,14.77,14.77,0,0,0,3.42,10,11.12,11.12,0,0,0,8.78,3.93q7.26,0,12.5-7.33a29.26,29.26,0,0,0,5.25-17.46A21.48,21.48,0,0,0,319.12,49.08Z"/><path d="M374.38,67.39a7.91,7.91,0,0,1,1.16,3.7q0,4.21-7.11,9.3t-13,5.09a9.87,9.87,0,0,1-8.4-4.6q-3.24-4.6-3.24-11.86,0-8.08,4.25-23l2-7.22h-7.26a17.08,17.08,0,0,0-7.26,1.29q2.49-4.52,4.13-5.68t5.54-1.15h6.49l.86-3q2-6.64,4.73-9.11t8.25-2.48q.64,0,2.06.09-3.35,4.31-7,14.48h22.69q6,0,9.11-1.55-1.08,4.4-2.86,5.75t-6.64,1.35H358.78l-.64,2.11q-5.2,17.7-5.2,26.73,0,10,7.18,10,3.69,0,8.06-3.14A18.54,18.54,0,0,0,374.38,67.39Z"/><path d="M389.16,66.52q0,12.56,10.66,12.56,9.24,0,20.37-8.79a88.93,88.93,0,0,0,20.07-23.15l3.65,2a79.61,79.61,0,0,1-21.89,26q-13.47,10.31-25.54,10.31-7.73,0-12.22-5t-4.49-13.62a30.37,30.37,0,0,1,8.14-21.31,25.71,25.71,0,0,1,19.62-8.85,13.36,13.36,0,0,1,8.87,2.79A9.25,9.25,0,0,1,419.71,47q0,7.69-9.26,13.61A38.63,38.63,0,0,1,389.16,66.52Zm.34-4.12a28.08,28.08,0,0,0,15.4-5.14q6.42-4.67,6.42-10.8,0-5.48-4.9-5.49-5.84,0-10.79,6.26A30.53,30.53,0,0,0,389.5,62.39Z"/><path class="cls-1" d="M457.52,69.28A15.27,15.27,0,0,1,459,75.51q0,6.57-5.5,11.45a18.81,18.81,0,0,1-12.89,4.88,12.16,12.16,0,0,1-7.39-2.23,6.53,6.53,0,0,1-3.05-5.37q0-3.35,4.19-6.79t14-8.16l-3.44-5.54q-6.27-10.1-6.27-15.77,0-8.16,9.5-13.15Q454,37.05,454,40.45q0,4.81-7.43,9.24l4.9,9,3.82,7a98.79,98.79,0,0,0,12.38-8.4,103.06,103.06,0,0,0,10.53-10.81l3.44,2.11A75.81,75.81,0,0,1,457.52,69.28Zm-7.3,3.87q-12.63,6.79-12.63,10.53,0,3.52,5.11,3.52a8,8,0,0,0,6.14-2.56A9.33,9.33,0,0,0,451.2,78,13.25,13.25,0,0,0,450.21,73.15Z"/><path class="cls-2" d="M479.39,44.23a57,57,0,0,1-1.62-6.1,36,36,0,0,1-.65-4.55,16.64,16.64,0,0,1,0-3.19,10.25,10.25,0,0,1,.43-2,6,6,0,0,1,2.15-2.67,15.34,15.34,0,0,1,4.57-2.19A6.16,6.16,0,0,1,483.06,21a4.45,4.45,0,0,1,.2-2.39l3.33-9.36a2,2,0,0,1,.91-1.12,3.85,3.85,0,0,1,1.5-.48,6.87,6.87,0,0,1,1.81,0A9.23,9.23,0,0,1,494.33,9a6.72,6.72,0,0,1,1.41,1.11,3.88,3.88,0,0,1,.85,1.32,2,2,0,0,1,0,1.44l-3.33,9.36a4.51,4.51,0,0,1-1.35,2,6.11,6.11,0,0,1-2.55,1.15,15.46,15.46,0,0,1,2.15,4.58,6,6,0,0,1,0,3.42,10.06,10.06,0,0,1-.94,1.83,16.86,16.86,0,0,1-2,2.5,35.16,35.16,0,0,1-3.38,3.12,58.83,58.83,0,0,1-5.12,3.7l3.06-8.61a2.06,2.06,0,0,0,1-.08,3,3,0,0,0,.94-.5,4,4,0,0,0,.82-.88,5,5,0,0,0,.61-1.19,4.91,4.91,0,0,0,.29-1.42,3.75,3.75,0,0,0-.14-1.28,2.86,2.86,0,0,0-.52-1,1.91,1.91,0,0,0-1.89-.67,2.89,2.89,0,0,0-1,.45,3.77,3.77,0,0,0-.91.9,5.21,5.21,0,0,0-1,2.59,4.14,4.14,0,0,0,.07,1.2,2.93,2.93,0,0,0,.4,1,2,2,0,0,0,.7.66Z"/></svg>